<svg width="192" height="192" viewBox="0 0 192 192" fill="none" xmlns="http://www.w3.org/2000/svg">
<g opacity="0.8">
<path d="M57.6 115.2C78.8078 115.2 96 98.0077 96 76.8C96 55.5923 78.8078 38.4 57.6 38.4C36.3923 38.4 19.2 55.5923 19.2 76.8C19.2 98.0077 36.3923 115.2 57.6 115.2Z" fill="#FF6B6B"/>
<path d="M96 115.2C117.208 115.2 134.4 98.0077 134.4 76.8C134.4 55.5923 117.208 38.4 96 38.4C74.7923 38.4 57.6 55.5923 57.6 76.8C57.6 98.0077 74.7923 115.2 96 115.2Z" fill="#4ECDC4"/>
<path d="M134.4 115.2C155.608 115.2 172.8 98.0077 172.8 76.8C172.8 55.5923 155.608 38.4 134.4 38.4C113.192 38.4 96 55.5923 96 76.8C96 98.0077 113.192 115.2 134.4 115.2Z" fill="#45B7D1"/>
</g>
<path d="M75.7998 136.035L77.7617 136.657C77.4609 137.751 76.9596 138.565 76.2578 139.098C75.5605 139.627 74.6741 139.891 73.5986 139.891C72.2679 139.891 71.1741 139.437 70.3174 138.531C69.4606 137.619 69.0322 136.375 69.0322 134.798C69.0322 133.13 69.4629 131.836 70.3242 130.915C71.1855 129.99 72.318 129.528 73.7217 129.528C74.9476 129.528 75.9433 129.89 76.709 130.615C77.1647 131.043 77.5065 131.658 77.7344 132.46L75.7314 132.939C75.6129 132.419 75.3646 132.009 74.9863 131.708C74.6126 131.407 74.1569 131.257 73.6191 131.257C72.8763 131.257 72.2724 131.524 71.8076 132.057C71.3473 132.59 71.1172 133.454 71.1172 134.648C71.1172 135.915 71.345 136.817 71.8008 137.355C72.2565 137.892 72.8489 138.161 73.5781 138.161C74.1159 138.161 74.5784 137.99 74.9658 137.649C75.3532 137.307 75.6312 136.769 75.7998 136.035ZM79.0469 135.988C79.0469 135.35 79.2041 134.732 79.5185 134.135C79.833 133.538 80.2773 133.082 80.8516 132.768C81.4303 132.453 82.0752 132.296 82.7861 132.296C83.8844 132.296 84.7845 132.654 85.4863 133.369C86.1881 134.08 86.5391 134.98 86.5391 136.07C86.5391 137.168 86.1836 138.079 85.4726 138.804C84.7663 139.524 83.8753 139.884 82.7998 139.884C82.1344 139.884 81.4987 139.734 80.8926 139.433C80.291 139.132 79.833 138.692 79.5185 138.114C79.2041 137.53 79.0469 136.822 79.0469 135.988ZM81.0156 136.09C81.0156 136.81 81.1865 137.362 81.5283 137.744C81.8701 138.127 82.2917 138.319 82.793 138.319C83.2943 138.319 83.7135 138.127 84.0508 137.744C84.3926 137.362 84.5635 136.806 84.5635 136.076C84.5635 135.365 84.3926 134.819 84.0508 134.436C83.7135 134.053 83.2943 133.862 82.793 133.862C82.2917 133.862 81.8701 134.053 81.5283 134.436C81.1865 134.819 81.0156 135.37 81.0156 136.09ZM88.0498 139.72V129.698H89.9707V139.72H88.0498ZM91.5019 135.988C91.5019 135.35 91.6592 134.732 91.9736 134.135C92.2881 133.538 92.7324 133.082 93.3066 132.768C93.8854 132.453 94.5303 132.296 95.2412 132.296C96.3395 132.296 97.2396 132.654 97.9414 133.369C98.6432 134.08 98.9941 134.98 98.9941 136.07C98.9941 137.168 98.6387 138.079 97.9277 138.804C97.2213 139.524 96.3304 139.884 95.2549 139.884C94.5895 139.884 93.9538 139.734 93.3476 139.433C92.7461 139.132 92.2881 138.692 91.9736 138.114C91.6592 137.53 91.5019 136.822 91.5019 135.988ZM93.4707 136.09C93.4707 136.81 93.6416 137.362 93.9834 137.744C94.3252 138.127 94.7467 138.319 95.248 138.319C95.7493 138.319 96.1686 138.127 96.5058 137.744C96.8476 137.362 97.0185 136.806 97.0185 136.076C97.0185 135.365 96.8476 134.819 96.5058 134.436C96.1686 134.053 95.7493 133.862 95.248 133.862C94.7467 133.862 94.3252 134.053 93.9834 134.436C93.6416 134.819 93.4707 135.37 93.4707 136.09ZM102.344 139.72H100.423V132.46H102.207V133.492C102.512 133.005 102.786 132.684 103.027 132.529C103.273 132.374 103.551 132.296 103.861 132.296C104.299 132.296 104.72 132.417 105.126 132.658L104.531 134.333C104.208 134.124 103.907 134.019 103.629 134.019C103.36 134.019 103.132 134.094 102.945 134.244C102.758 134.39 102.61 134.657 102.501 135.044C102.396 135.432 102.344 136.243 102.344 137.478V139.72ZM106.001 139.72V129.698H108.024V134.149L112.112 129.698H114.833L111.06 133.602L115.038 139.72H112.42L109.665 135.017L108.024 136.692V139.72H106.001ZM116.077 131.476V129.698H117.998V131.476H116.077ZM116.077 139.72V132.46H117.998V139.72H116.077ZM123.303 132.46V133.991H121.99V136.917C121.99 137.51 122.002 137.856 122.024 137.956C122.052 138.052 122.109 138.132 122.195 138.196C122.286 138.259 122.396 138.291 122.523 138.291C122.701 138.291 122.959 138.23 123.296 138.107L123.46 139.597C123.013 139.788 122.507 139.884 121.942 139.884C121.596 139.884 121.284 139.827 121.006 139.713C120.728 139.595 120.523 139.444 120.391 139.262C120.263 139.075 120.174 138.824 120.124 138.51C120.083 138.287 120.062 137.836 120.062 137.156V133.991H119.181V132.46H120.062V131.018L121.99 129.897V132.46H123.303Z" fill="#333333"/>
<g opacity="0.9">
<path d="M48 61.44C50.1208 61.44 51.84 59.7208 51.84 57.6C51.84 55.4792 50.1208 53.76 48 53.76C45.8792 53.76 44.16 55.4792 44.16 57.6C44.16 59.7208 45.8792 61.44 48 61.44Z" fill="#FFD700"/>
<path d="M144 71.04C146.121 71.04 147.84 69.3208 147.84 67.2C147.84 65.0792 146.121 63.36 144 63.36C141.879 63.36 140.16 65.0792 140.16 67.2C140.16 69.3208 141.879 71.04 144 71.04Z" fill="#FFD700"/>
<path d="M96 51.84C98.1208 51.84 99.84 50.1208 99.84 48C99.84 45.8792 98.1208 44.16 96 44.16C93.8792 44.16 92.16 45.8792 92.16 48C92.16 50.1208 93.8792 51.84 96 51.84Z" fill="#FFD700"/>
</g>
</svg>
