<svg width="32" height="32" viewBox="0 0 32 32" fill="none" xmlns="http://www.w3.org/2000/svg">
<g clip-path="url(#clip0_1_12)">
<rect width="32" height="32" fill="#EDEDED"/>
<rect width="32" height="32" fill="#EDEDED"/>
<g opacity="0.8">
<path d="M9.60001 19.2C13.1346 19.2 16 16.3346 16 12.8C16 9.26537 13.1346 6.39999 9.60001 6.39999C6.06539 6.39999 3.20001 9.26537 3.20001 12.8C3.20001 16.3346 6.06539 19.2 9.60001 19.2Z" fill="#FF6B6B"/>
<path d="M16 19.2C19.5347 19.2 22.4 16.3346 22.4 12.8C22.4 9.26537 19.5347 6.39999 16 6.39999C12.4654 6.39999 9.60004 9.26537 9.60004 12.8C9.60004 16.3346 12.4654 19.2 16 19.2Z" fill="#4ECDC4"/>
<path d="M22.4 19.2C25.9346 19.2 28.8 16.3346 28.8 12.8C28.8 9.26537 25.9346 6.39999 22.4 6.39999C18.8654 6.39999 16 9.26537 16 12.8C16 16.3346 18.8654 19.2 22.4 19.2Z" fill="#45B7D1"/>
</g>
<path d="M12.6333 22.5059L12.9603 22.6096C12.9101 22.7919 12.8266 22.9274 12.7096 23.0163C12.5934 23.1044 12.4457 23.1485 12.2664 23.1485C12.0446 23.1485 11.8623 23.0729 11.7195 22.9218C11.5767 22.7698 11.5053 22.5625 11.5053 22.2997C11.5053 22.0217 11.5771 21.806 11.7207 21.6525C11.8642 21.4984 12.053 21.4213 12.2869 21.4213C12.4912 21.4213 12.6572 21.4816 12.7848 21.6024C12.8608 21.6738 12.9177 21.7764 12.9557 21.91L12.6219 21.9898C12.6021 21.9032 12.5607 21.8348 12.4977 21.7847C12.4354 21.7346 12.3595 21.7095 12.2698 21.7095C12.146 21.7095 12.0454 21.7539 11.9679 21.8428C11.8912 21.9317 11.8528 22.0756 11.8528 22.2746C11.8528 22.4858 11.8908 22.6362 11.9668 22.7258C12.0427 22.8154 12.1415 22.8602 12.263 22.8602C12.3526 22.8602 12.4297 22.8317 12.4943 22.7748C12.5588 22.7178 12.6052 22.6282 12.6333 22.5059ZM13.1745 22.4979C13.1745 22.3916 13.2007 22.2887 13.2531 22.1892C13.3055 22.0897 13.3795 22.0137 13.4752 21.9613C13.5717 21.9089 13.6792 21.8827 13.7977 21.8827C13.9807 21.8827 14.1307 21.9423 14.2477 22.0616C14.3647 22.1801 14.4232 22.3301 14.4232 22.5116C14.4232 22.6946 14.3639 22.8466 14.2454 22.9673C14.1277 23.0873 13.9792 23.1473 13.7999 23.1473C13.6891 23.1473 13.5831 23.1223 13.4821 23.0721C13.3818 23.022 13.3055 22.9487 13.2531 22.8523C13.2007 22.755 13.1745 22.6369 13.1745 22.4979ZM13.5026 22.515C13.5026 22.635 13.5311 22.7269 13.588 22.7907C13.645 22.8545 13.7153 22.8864 13.7988 22.8864C13.8824 22.8864 13.9522 22.8545 14.0084 22.7907C14.0654 22.7269 14.0939 22.6343 14.0939 22.5127C14.0939 22.3942 14.0654 22.3031 14.0084 22.2393C13.9522 22.1755 13.8824 22.1436 13.7988 22.1436C13.7153 22.1436 13.645 22.1755 13.588 22.2393C13.5311 22.3031 13.5026 22.395 13.5026 22.515ZM14.6749 23.12V21.4497H14.9951V23.12H14.6749ZM15.2503 22.4979C15.2503 22.3916 15.2765 22.2887 15.3289 22.1892C15.3813 22.0897 15.4554 22.0137 15.5511 21.9613C15.6475 21.9089 15.755 21.8827 15.8735 21.8827C16.0566 21.8827 16.2066 21.9423 16.3235 22.0616C16.4405 22.1801 16.499 22.3301 16.499 22.5116C16.499 22.6946 16.4398 22.8466 16.3213 22.9673C16.2035 23.0873 16.055 23.1473 15.8758 23.1473C15.7649 23.1473 15.6589 23.1223 15.5579 23.0721C15.4577 23.022 15.3813 22.9487 15.3289 22.8523C15.2765 22.755 15.2503 22.6369 15.2503 22.4979ZM15.5784 22.515C15.5784 22.635 15.6069 22.7269 15.6639 22.7907C15.7208 22.8545 15.7911 22.8864 15.8747 22.8864C15.9582 22.8864 16.0281 22.8545 16.0843 22.7907C16.1413 22.7269 16.1697 22.6343 16.1697 22.5127C16.1697 22.3942 16.1413 22.3031 16.0843 22.2393C16.0281 22.1755 15.9582 22.1436 15.8747 22.1436C15.7911 22.1436 15.7208 22.1755 15.6639 22.2393C15.6069 22.3031 15.5784 22.395 15.5784 22.515ZM17.0573 23.12H16.7371V21.91H17.0345V22.0821C17.0854 22.0008 17.1309 21.9473 17.1712 21.9214C17.2122 21.8956 17.2585 21.8827 17.3102 21.8827C17.3831 21.8827 17.4534 21.9028 17.521 21.9431L17.4219 22.2222C17.3679 22.1873 17.3178 22.1698 17.2715 22.1698C17.2266 22.1698 17.1887 22.1823 17.1575 22.2074C17.1264 22.2317 17.1017 22.2761 17.0835 22.3407C17.066 22.4053 17.0573 22.5405 17.0573 22.7463V23.12ZM17.6668 23.12V21.4497H18.004V22.1914L18.6854 21.4497H19.1388L18.5099 22.1003L19.173 23.12H18.7366L18.2775 22.3361L18.004 22.6153V23.12H17.6668ZM19.3462 21.746V21.4497H19.6663V21.746H19.3462ZM19.3462 23.12V21.91H19.6663V23.12H19.3462ZM20.5504 21.91V22.1652H20.3317V22.6529C20.3317 22.7516 20.3336 22.8093 20.3374 22.826C20.3419 22.842 20.3514 22.8553 20.3659 22.8659C20.3811 22.8766 20.3993 22.8819 20.4206 22.8819C20.4502 22.8819 20.4931 22.8716 20.5493 22.8511L20.5766 23.0995C20.5022 23.1314 20.4179 23.1473 20.3237 23.1473C20.266 23.1473 20.214 23.1378 20.1676 23.1189C20.1213 23.0991 20.0871 23.074 20.0651 23.0437C20.0438 23.0125 20.029 22.9707 20.0206 22.9183C20.0138 22.8811 20.0104 22.8059 20.0104 22.6927V22.1652H19.8634V21.91H20.0104V21.6696L20.3317 21.4828V21.91H20.5504Z" fill="#333333"/>
<g opacity="0.9">
<path d="M7.99999 10.24C8.35345 10.24 8.63999 9.95345 8.63999 9.59999C8.63999 9.24653 8.35345 8.95999 7.99999 8.95999C7.64652 8.95999 7.35999 9.24653 7.35999 9.59999C7.35999 9.95345 7.64652 10.24 7.99999 10.24Z" fill="#FFD700"/>
<path d="M24 11.84C24.3534 11.84 24.64 11.5535 24.64 11.2C24.64 10.8465 24.3534 10.56 24 10.56C23.6465 10.56 23.36 10.8465 23.36 11.2C23.36 11.5535 23.6465 11.84 24 11.84Z" fill="#FFD700"/>
<path d="M16 8.64002C16.3534 8.64002 16.64 8.35348 16.64 8.00002C16.64 7.64655 16.3534 7.36002 16 7.36002C15.6465 7.36002 15.36 7.64655 15.36 8.00002C15.36 8.35348 15.6465 8.64002 16 8.64002Z" fill="#FFD700"/>
</g>
</g>
<defs>
<clipPath id="clip0_1_12">
<rect width="32" height="32" fill="white"/>
</clipPath>
</defs>
</svg>
